<svg viewBox="-55 -60 200 200" xmlns="http://www.w3.org/2000/svg">
<g filter="url(#filter0_d)">
<path fill-rule="evenodd" clip-rule="evenodd" d="M8.50008 0.6875H83.5001C87.6667 0.6875 91.8334 4.85417 91.8334 9.02083V67.3542C91.8334 71.5208 87.6667 75.6875 83.5001 75.6875H8.50008C3.91675 75.6875 0.166748 71.9375 0.166748 67.3542V9.02083C0.166748 4.85417 4.33341 0.6875 8.50008 0.6875ZM46.0001 28.1875V48.1875C46.0001 51.8542 49.0001 54.8542 52.6667 54.8542H72.6667C76.3334 54.8542 79.3334 51.8542 79.3334 48.1875V28.1875C79.3334 24.5208 76.3334 21.5208 72.6667 21.5208H52.6667C49.0001 21.5208 46.0001 24.5208 46.0001 28.1875ZM12.6667 21.5208H37.6667V29.8542H12.6667V21.5208ZM12.6667 42.3542H37.6667V34.0208H12.6667V42.3542ZM12.6667 54.8542H37.6667V46.5208H12.6667V54.8542Z" fill="#9EA2A8"/>
</g>
<defs>
<filter id="filter0_d" x="-4" y="-11.8125" width="140" height="140" filterUnits="userSpaceOnUse" color-interpolation-filters="sRGB">
<feFlood flood-opacity="0" result="BackgroundImageFix"/>
<feColorMatrix in="SourceAlpha" type="matrix" values="0 0 0 0 0 0 0 0 0 0 0 0 0 0 0 0 0 0 127 0"/>
<feOffset/>
<feGaussianBlur stdDeviation="10"/>
<feColorMatrix type="matrix" values="0 0 0 0 0 0 0 0 0 0 0 0 0 0 0 0 0 0 0.1 0"/>
<feBlend mode="normal" in2="BackgroundImageFix" result="effect1_dropShadow"/>
<feBlend mode="normal" in="SourceGraphic" in2="effect1_dropShadow" result="shape"/>
</filter>
</defs>
</svg>



