<svg width="181" height="39" viewBox="0 0 181 39" fill="none" xmlns="http://www.w3.org/2000/svg">
<path d="M11.963 25.3724L22.1075 19.5942L11.9311 13.8213L1.80249 19.5942L11.963 25.3724Z" fill="#6ABF4B"/>
<path d="M135.98 21.8C135.94 18.28 133.5 16.1 130.48 16.1C127.16 16.1 125.02 18.82 125.02 21.72C125.02 24.56 127.04 27.26 130.56 27.26C132.88 27.26 134.54 26.2 135.62 24.08L134.48 23.48C133.7 24.76 132.64 26.02 130.42 26.02C128.14 26.02 126.48 24.24 126.42 21.8H135.98ZM126.56 20.6C127.18 18.44 128.6 17.42 130.5 17.42C132.34 17.42 133.92 18.4 134.48 20.6H126.56ZM147.788 27H149.148V12.28H147.788V18.32C146.728 16.84 145.268 16.1 143.548 16.1C140.468 16.1 138.068 18.64 138.068 21.66C138.068 24.68 140.408 27.26 143.508 27.26C145.168 27.26 146.628 26.58 147.788 25.18V27ZM143.668 17.42C146.048 17.42 147.868 19.28 147.868 21.74C147.868 24.38 145.828 26.02 143.648 26.02C141.268 26.02 139.468 24 139.468 21.7C139.468 19.42 141.228 17.42 143.668 17.42ZM152.039 27H153.399V16.38H152.039V27ZM152.699 12C152.099 12 151.579 12.48 151.579 13.12C151.579 13.74 152.079 14.26 152.699 14.26C153.319 14.26 153.839 13.74 153.839 13.12C153.839 12.5 153.319 12 152.699 12ZM157.443 16.38H155.563V17.58H157.443V27H158.803V17.58H160.983V16.38H158.803V12.42H157.443V16.38ZM168.04 16.1C164.86 16.1 162.5 18.68 162.5 21.72C162.5 24.74 164.84 27.28 168.04 27.28C171.24 27.28 173.58 24.74 173.58 21.72C173.58 18.68 171.22 16.1 168.04 16.1ZM168.04 17.42C170.3 17.42 172.18 19.38 172.18 21.74C172.18 24.06 170.42 25.96 168.04 25.96C165.64 25.96 163.9 24.06 163.9 21.74C163.9 19.38 165.76 17.42 168.04 17.42ZM177.006 16.38H175.566V27H177.006V22.96C177.006 21.52 177.046 20.42 177.226 19.74C177.626 18.28 178.526 17.42 179.526 17.42C179.826 17.42 180.086 17.54 180.246 17.62L180.966 16.46C180.686 16.3 180.366 16.1 179.746 16.1C178.666 16.1 177.806 16.76 177.006 17.92V16.38Z" fill="white"/>
<path d="M38.9354 27H39.1754L44.0354 16.38H42.5754L39.0554 24.1L35.4954 16.38H34.0354L38.9354 27ZM53.8296 21.56C53.8296 23.08 53.8496 24.1 53.0096 25C52.4496 25.58 51.5896 25.94 50.6096 25.94C49.2696 25.94 48.1696 25.32 47.6696 24.24C47.3696 23.6 47.3696 22.68 47.3696 21.56V16.38H45.9296V21.88C45.9296 25.46 47.5696 27.26 50.6096 27.26C53.6496 27.26 55.2696 25.46 55.2696 21.88V16.38H53.8296V21.56ZM58.9176 16.38H57.5176V17.58H58.9176V27H60.2776V17.58H62.5176V16.38H60.2776V14.94C60.2776 13.98 60.2376 13.3 61.3576 13.3C61.8976 13.3 62.3176 13.48 62.6376 13.62V12.28C62.1976 12.14 61.6576 11.98 61.0776 11.98C59.3376 11.98 58.9176 13 58.9176 14.72V16.38ZM69.6066 16.1C66.4266 16.1 64.0666 18.68 64.0666 21.72C64.0666 24.74 66.4066 27.28 69.6066 27.28C72.8066 27.28 75.1466 24.74 75.1466 21.72C75.1466 18.68 72.7866 16.1 69.6066 16.1ZM69.6066 17.42C71.8666 17.42 73.7466 19.38 73.7466 21.74C73.7466 24.06 71.9866 25.96 69.6066 25.96C67.2066 25.96 65.4666 24.06 65.4666 21.74C65.4666 19.38 67.3266 17.42 69.6066 17.42ZM78.5721 16.38H77.1321V27H78.5721V22.96C78.5721 21.52 78.6121 20.42 78.7921 19.74C79.1921 18.28 80.0921 17.42 81.0921 17.42C81.3921 17.42 81.6521 17.54 81.8121 17.62L82.5321 16.46C82.2521 16.3 81.9321 16.1 81.3121 16.1C80.2321 16.1 79.3721 16.76 78.5721 17.92V16.38ZM83.5077 27H84.8677V16.38H83.5077V27ZM84.1677 12C83.5677 12 83.0477 12.48 83.0477 13.12C83.0477 13.74 83.5477 14.26 84.1677 14.26C84.7877 14.26 85.3077 13.74 85.3077 13.12C85.3077 12.5 84.7877 12 84.1677 12ZM96.9316 18.32C95.8716 16.84 94.4116 16.1 92.6916 16.1C89.6116 16.1 87.2116 18.64 87.2116 21.66C87.2116 24.68 89.5516 27.26 92.6516 27.26C94.3116 27.26 95.7716 26.58 96.9316 25.18V27H98.2716V16.38H96.9316V18.32ZM92.8116 17.42C95.1916 17.42 97.0316 19.28 97.0316 21.74C97.0316 24.38 94.9716 26.02 92.7916 26.02C90.4116 26.02 88.6116 24 88.6116 21.7C88.6116 19.42 90.3716 17.42 92.8116 17.42Z" fill="white"/>
<path d="M11.931 11.7345L23.8779 18.5194V12.8409L11.8725 6.00879L0 12.8514V18.5351L11.931 11.7345Z" fill="white"/>
<path d="M11.9629 27.4542L0 20.6536V26.3478L12.0107 33.1799L23.8779 26.3426V20.6745L11.9629 27.4542Z" fill="white"/>
<path d="M102.105 16.3486C102.334 16.3486 102.563 16.3906 102.775 16.4797C103.19 16.6527 103.514 16.9778 103.69 17.3868C103.876 17.8063 103.876 18.2887 103.69 18.7081C103.599 18.9021 103.477 19.0804 103.323 19.2325C103.169 19.3898 102.993 19.5104 102.791 19.5995C101.914 19.9613 100.904 19.5523 100.537 18.6872C100.356 18.2677 100.356 17.7958 100.537 17.3763C100.627 17.1771 100.75 17.0041 100.909 16.852C101.063 16.6999 101.244 16.5741 101.441 16.485C101.648 16.3958 101.877 16.3486 102.105 16.3486V16.3486ZM102.105 19.4946C102.504 19.5051 102.892 19.3531 103.169 19.0699C103.451 18.792 103.61 18.4145 103.605 18.0213C103.605 17.8273 103.562 17.6333 103.488 17.455C103.413 17.2819 103.307 17.1246 103.169 16.9936C102.892 16.7052 102.504 16.5531 102.105 16.5636C101.707 16.5479 101.319 16.7052 101.042 16.9936C100.755 17.2662 100.601 17.649 100.611 18.0422C100.611 18.2362 100.649 18.425 100.728 18.6033C100.803 18.7763 100.909 18.9388 101.042 19.0699C101.319 19.3583 101.707 19.5156 102.105 19.4946ZM102.951 17.6542C102.951 17.7643 102.919 17.8692 102.855 17.9583C102.786 18.0475 102.685 18.1104 102.579 18.1419C102.77 18.21 102.903 18.3831 102.914 18.5875C102.919 18.6452 102.919 18.6977 102.914 18.7553V18.9913H102.568V18.8025C102.573 18.6977 102.557 18.5928 102.52 18.4932C102.462 18.3621 102.323 18.2834 102.18 18.2939H101.691V18.9913H101.34V17.1037H102.153C102.366 17.0879 102.573 17.1404 102.749 17.2557C102.876 17.3501 102.956 17.5022 102.951 17.6595V17.6542ZM102.143 18.0003C102.26 18.0055 102.377 17.9793 102.483 17.9216C102.611 17.822 102.632 17.6385 102.531 17.5179C102.515 17.5022 102.504 17.4864 102.483 17.4707C102.371 17.4025 102.238 17.3763 102.111 17.3868H101.685V18.0003H102.143Z" fill="white"/>
<line x1="112.972" y1="0.445466" x2="113.612" y2="38.5378" stroke="#525560"/>
</svg>
